<?xml version="1.0" standalone="no"?>
<!DOCTYPE svg PUBLIC "-//W3C//DTD SVG 20010904//EN"
 "http://www.w3.org/TR/2001/REC-SVG-20010904/DTD/svg10.dtd">
<svg version="1.0" xmlns="http://www.w3.org/2000/svg"
 width="500.000000pt" height="500.000000pt" viewBox="0 0 500.000000 500.000000"
 preserveAspectRatio="xMidYMid meet">
<metadata>
Created by potrace 1.14, written by Peter Selinger 2001-2017
</metadata>
<g transform="translate(0.000000,500.000000) scale(0.100000,-0.100000)"
fill="#000000" stroke="none">
<path d="M2315 4994 c-470 -48 -826 -170 -1180 -402 -165 -108 -260 -185 -401
-326 -141 -141 -218 -236 -326 -401 -209 -318 -334 -658 -390 -1060 -16 -118
-16 -495 0 -610 68 -482 243 -895 532 -1260 81 -103 282 -304 385 -385 365
-289 779 -464 1260 -532 117 -17 493 -17 610 0 481 68 895 243 1260 532 103
81 304 282 385 385 246 310 425 692 499 1065 37 189 46 282 46 500 0 218 -9
311 -46 500 -74 373 -253 755 -499 1065 -81 103 -282 304 -385 385 -360 286
-778 464 -1245 530 -79 11 -436 21 -505 14z m57 -945 l48 -23 -471 -237 -472
-238 -213 107 c-118 59 -214 109 -214 112 0 3 209 110 465 237 l465 232 173
-83 c94 -46 193 -94 219 -107z m1093 -41 c256 -128 465 -235 465 -238 0 -3
-96 -53 -212 -111 l-213 -106 -467 233 c-258 129 -468 236 -468 239 0 4 402
205 427 214 2 1 212 -104 468 -231z m-897 -817 l107 -54 -91 -45 -91 -45 -117
56 -116 56 0 125 c0 119 -1 126 -20 126 -11 0 -73 -25 -139 -56 l-119 -56
-203 102 c-112 56 -208 106 -213 110 -5 5 193 110 440 233 l449 225 3 -362 2
-362 108 -53z m412 554 c248 -124 449 -229 446 -233 -2 -4 -99 -54 -215 -112
l-211 -105 -115 58 c-63 31 -126 57 -140 57 -24 0 -24 -1 -27 -110 l-3 -110
-97 47 -98 47 0 343 c0 189 2 343 5 343 3 0 208 -101 455 -225z m1230 -338 c0
-7 -44 -34 -98 -61 l-98 -48 -217 108 -217 109 212 106 213 107 102 -154 c57
-85 103 -160 103 -167z m-3009 213 c110 -55 198 -104 195 -108 -2 -4 -99 -54
-215 -112 l-210 -104 -92 44 c-50 25 -95 50 -101 57 -7 9 5 36 45 95 100 150
157 228 167 228 6 0 100 -45 211 -100z m744 -372 c256 -128 465 -235 465 -238
0 -3 -96 -53 -213 -112 l-213 -106 -467 234 c-257 129 -467 237 -467 240 0 3
403 205 427 213 2 1 212 -104 468 -231z m1947 42 l47 -24 -469 -238 -470 -238
-215 107 c-118 59 -215 110 -215 114 0 3 210 109 467 236 l467 230 171 -82
c93 -45 191 -93 217 -105z m-3068 10 c36 -16 66 -32 66 -34 0 -3 -31 -22 -70
-41 l-70 -35 0 70 c0 38 2 70 4 70 2 0 34 -13 70 -30z m1376 -40 l0 -70 -71
36 c-39 19 -69 38 -66 41 7 7 120 61 130 62 4 1 7 -31 7 -69z m654 40 c36 -17
66 -32 66 -35 0 -3 -31 -21 -70 -40 l-70 -35 0 70 c0 38 2 70 4 70 2 0 33 -14
70 -30z m1376 -40 l0 -70 -70 35 c-38 19 -70 37 -70 40 0 5 119 63 133 64 4 1
7 -31 7 -69z m-2143 -713 l113 -174 0 -227 0 -226 -220 110 -220 110 0 125 0
125 -260 130 c-143 71 -269 130 -280 130 -20 0 -20 -4 -18 -527 l3 -528 250
-127 c138 -70 262 -127 278 -128 l27 0 0 110 0 110 220 -110 220 -110 0 -235
0 -235 -110 -55 -110 -55 -494 250 -495 251 -120 179 -121 179 0 750 0 751
107 54 108 54 505 -254 505 -253 112 -174z m2143 335 l0 -239 -217 -105 -218
-104 -3 108 -3 108 -27 0 c-15 -1 -139 -58 -277 -128 l-250 -127 -3 -527 -2
-528 22 0 c13 0 139 57 281 127 l257 127 0 125 0 126 220 112 220 113 0 -231
0 -231 -117 -173 -118 -174 -497 -251 -497 -251 -110 56 -111 55 0 747 0 747
122 184 122 184 496 248 495 248 108 -54 107 -54 0 -238z m-1770 -147 l0 -216
-106 -50 c-59 -27 -108 -48 -109 -47 -1 2 -50 75 -109 163 l-106 160 202 102
c112 56 209 102 216 102 9 1 12 -48 12 -214z m279 115 c110 -54 202 -103 205
-108 5 -8 -198 -322 -208 -322 -3 0 -52 23 -110 51 l-106 52 0 213 c0 137 4
214 10 214 6 0 100 -45 209 -100z m-1254 -388 l210 -107 3 -232 2 -233 -220
-110 -220 -110 0 450 c0 247 3 450 8 450 4 -1 102 -49 217 -108z m2245 38 c0
-38 -2 -70 -4 -70 -2 0 -37 15 -76 34 l-72 35 69 35 c37 19 71 35 76 36 4 0 7
-31 7 -70z m500 -125 c0 -107 -3 -195 -6 -195 -3 0 -44 18 -91 40 -49 23 -101
40 -120 40 -20 0 -72 -17 -120 -40 -47 -22 -90 -40 -94 -40 -5 0 -9 39 -9 88
l0 87 213 107 c116 59 215 107 220 107 4 1 7 -87 7 -194z m-500 -107 c0 -49
-4 -88 -9 -88 -4 0 -47 18 -95 40 -47 22 -101 40 -120 40 -18 0 -72 -18 -120
-40 -47 -22 -89 -40 -91 -40 -3 0 -5 40 -5 90 l0 90 107 54 108 54 112 -57
113 -56 0 -87z m-1110 137 l90 -45 0 -725 c0 -399 -2 -725 -5 -725 -3 0 -46
20 -95 45 l-90 45 0 253 0 252 -125 63 -125 62 0 110 0 110 125 62 125 63 0
237 c0 131 2 238 5 238 3 0 46 -20 95 -45z m-160 -178 l0 -212 -95 -48 -95
-47 0 218 0 218 83 41 c45 23 88 42 95 42 9 1 12 -48 12 -212z m1174 -76 l126
-60 127 61 127 61 83 -42 c46 -22 83 -44 83 -49 0 -4 -96 -55 -213 -113 l-212
-107 -190 95 c-272 136 -255 118 -154 169 46 24 87 43 91 43 4 1 63 -26 132
-58z m96 -391 c0 -50 -2 -90 -5 -90 -3 0 -102 48 -220 107 l-215 108 0 92 0
93 220 -110 220 -110 0 -90z m-1765 208 c102 -51 185 -96 185 -100 0 -5 -38
-27 -85 -50 l-85 -42 -107 56 -108 57 -3 85 c-2 54 1 86 8 86 5 0 93 -42 195
-92z m-150 -180 c47 -23 85 -45 85 -48 0 -3 -45 -29 -100 -58 l-100 -53 0
-105 c0 -57 -2 -104 -5 -104 -10 0 -385 190 -385 195 0 4 405 212 417 214 2 1
41 -18 88 -41z m395 -86 l0 -108 100 -49 c55 -27 100 -52 100 -55 0 -3 -40
-25 -88 -49 l-88 -43 -214 107 -215 107 195 99 c107 54 198 98 203 98 4 1 7
-48 7 -107z m1280 13 c105 -52 190 -97 190 -100 0 -5 -375 -195 -385 -195 -3
0 -5 88 -5 195 0 107 2 195 5 195 3 0 91 -43 195 -95z m-1030 -500 l0 -215
-90 -45 c-49 -25 -92 -45 -95 -45 -3 0 -5 96 -5 214 l0 214 83 45 c45 25 88
46 95 46 9 1 12 -48 12 -214z"/>
</g>
</svg>
